<?xml version="1.0" encoding="utf-8"?>
<!-- Generator: Adobe Illustrator 20.1.0, SVG Export Plug-In . SVG Version: 6.00 Build 0)  -->
<svg version="1.1" id="Layer_1" xmlns="http://www.w3.org/2000/svg" xmlns:xlink="http://www.w3.org/1999/xlink" x="0px" y="0px"
	 viewBox="0 0 595.3 841.9" style="enable-background:new 0 0 595.3 841.9;" xml:space="preserve">
<style type="text/css">
	.st0{opacity:0.8;}
	.st1{fill:#54EAB0;}
</style>
<g class="st0">
	<g id="triangle36_39_">
		<path class="st1" d="M254.9,148.1c-0.1,0-0.1,0-0.2,0l-15.8-8.7c-0.1-0.1-0.2-0.2-0.2-0.3s0.1-0.2,0.2-0.3l20-8.2
			c0.1,0,0.2,0,0.3,0.1c0.1,0.1,0.1,0.2,0.1,0.3l-4.2,16.9C255.1,148,255,148.1,254.9,148.1C255,148.1,255,148.1,254.9,148.1z
			 M239.9,139.1l14.8,8.2l4-15.8L239.9,139.1z"/>
	</g>
	<g id="triangle36_38_">
		<path class="st1" d="M239.2,139.4c-0.1,0-0.2-0.1-0.3-0.1c-0.1-0.1-0.1-0.3,0-0.4l24.2-26.3c0.1-0.1,0.3-0.1,0.4-0.1
			c0.1,0.1,0.2,0.2,0.2,0.4l-4.2,18.1c0,0.1-0.1,0.2-0.2,0.2L239.2,139.4C239.3,139.3,239.2,139.4,239.2,139.4z M262.7,113.9
			l-22.3,24.2l18.4-7.5L262.7,113.9z"/>
	</g>
	<g id="triangle36_37_">
		<path class="st1" d="M259.2,131.2h-0.1c-0.1-0.1-0.2-0.2-0.2-0.4l4.2-18.1c0-0.1,0-0.1,0.1-0.2l21.4-20.7c0.1-0.1,0.3-0.1,0.4,0
			s0.2,0.3,0.1,0.4L259.4,131C259.4,131.1,259.3,131.2,259.2,131.2z M263.6,112.9l-3.7,16.2l22.9-34.8L263.6,112.9z"/>
	</g>
	<g id="triangle36_36_">
		<path class="st1" d="M259.2,131.2c-0.1,0-0.2,0-0.3-0.1c-0.1-0.1-0.1-0.3,0-0.4l25.5-38.8c0.1-0.1,0.2-0.2,0.3-0.1l52.7,8.1
			c0.1,0,0.3,0.1,0.3,0.3c0,0.1-0.1,0.3-0.2,0.3l-78.2,30.8C259.2,131.2,259.2,131.2,259.2,131.2z M284.9,92.4L260,130.2l76.1-30
			L284.9,92.4z"/>
	</g>
	<g id="triangle36_35_">
		<path class="st1" d="M337.4,100.4C337.3,100.4,337.3,100.4,337.4,100.4l-52.7-8.1c-0.1,0-0.2-0.1-0.2-0.1c-0.1-0.1-0.1-0.2,0-0.3
			l5.4-18.1c0-0.1,0.1-0.2,0.2-0.2s0.2,0,0.3,0l47.2,26.2c0.1,0,0.2,0.2,0.2,0.3C337.7,100.3,337.6,100.4,337.4,100.4L337.4,100.4z
			 M285.1,91.8l50.4,7.7l-45.3-25.1L285.1,91.8z"/>
	</g>
	<g id="triangle36_34_">
		<path class="st1" d="M214.8,178.1c-0.1,0-0.2,0-0.2-0.1c-0.1-0.1-0.1-0.3-0.1-0.4l24.4-38.8c0.1-0.1,0.3-0.2,0.4-0.1l15.8,8.7
			c0.1,0.1,0.2,0.2,0.2,0.3s0,0.2-0.1,0.3l-40.1,30C215,178.1,214.9,178.1,214.8,178.1z M239.3,139.5l-23.2,37l38.3-28.7
			L239.3,139.5z"/>
	</g>
	<g id="triangle36_33_">
		<path class="st1" d="M239.9,216.2c-0.1,0-0.2-0.1-0.3-0.1l-25-38.1c-0.1-0.1-0.1-0.3,0.1-0.4l40.1-30c0.1-0.1,0.3-0.1,0.4,0
			c0.1,0.1,0.2,0.2,0.1,0.4l-15.1,68.1C240.2,216.1,240,216.2,239.9,216.2L239.9,216.2z M215.3,177.9l24.4,37.1l14.7-66.5
			L215.3,177.9z"/>
	</g>
	<g id="triangle36_32_">
		<path class="st1" d="M239.9,216.2c-0.1,0-0.1,0-0.2-0.1c-0.1-0.1-0.2-0.2-0.1-0.3l15.1-68.1c0-0.2,0.2-0.3,0.3-0.3l98.9,3.3
			c0.1,0,0.3,0.1,0.3,0.3c0,0.1,0,0.3-0.2,0.4L239.9,216.2C240,216.2,239.9,216.2,239.9,216.2z M255.2,148.1l-14.9,67.1l112.4-63.8
			L255.2,148.1z"/>
	</g>
	<g id="triangle36_31_">
		<path class="st1" d="M353.9,151.4L353.9,151.4L353.9,151.4l-99-3.3c-0.1,0-0.2-0.1-0.3-0.1c-0.1-0.1-0.1-0.2-0.1-0.3l4.2-16.9
			c0-0.2,0.2-0.3,0.4-0.2l94.7,20.2c0.2,0,0.3,0.2,0.3,0.3C354.2,151.3,354.1,151.4,353.9,151.4z M255.4,147.4l94.8,3.2l-90.8-19.4
			L255.4,147.4z"/>
	</g>
	<g id="triangle36_30_">
		<path class="st1" d="M353.9,151.4C353.9,151.4,353.8,151.4,353.9,151.4l-94.8-20.2c-0.1,0-0.2-0.2-0.3-0.3c0-0.1,0.1-0.3,0.2-0.3
			l78.2-30.8c0.1,0,0.2,0,0.3,0c0.1,0,0.1,0.1,0.2,0.2l16.5,50.9c0,0.1,0.1,0.1,0.1,0.2C354.2,151.3,354.1,151.4,353.9,151.4
			L353.9,151.4z M260.3,130.8l93.1,19.9l-16.2-50.1L260.3,130.8z"/>
	</g>
	<g id="triangle36_29_">
		<path class="st1" d="M353.9,151.4c-0.1,0-0.2-0.1-0.3-0.1c-0.1-0.1-0.1-0.2,0-0.3l22.1-54.7c0.1-0.1,0.2-0.2,0.3-0.2
			c0.1,0,0.3,0.1,0.3,0.3l12.4,53c0,0.1,0,0.2-0.1,0.3s-0.2,0.1-0.2,0.1L353.9,151.4L353.9,151.4z M375.9,97.4l-21.5,53.3L388,149
			L375.9,97.4z"/>
	</g>
	<g id="triangle36_28_">
		<path class="st1" d="M353.9,151.4L353.9,151.4c-0.2,0-0.3-0.1-0.3-0.2l-16.5-51c0-0.1,0-0.2,0-0.3c0.1-0.1,0.1-0.1,0.2-0.1
			l38.6-3.7c0.1,0,0.2,0,0.3,0.1c0.1,0.1,0.1,0.2,0,0.3l-22.1,54.7C354.1,151.3,354,151.4,353.9,151.4z M337.8,100.4l16.1,49.7
			l21.5-53.4L337.8,100.4z"/>
	</g>
	<g id="triangle36_27_">
		<path class="st1" d="M239.9,216.2c-0.1,0-0.3-0.1-0.3-0.2c0-0.2,0-0.3,0.2-0.4l114-64.8c0.1-0.1,0.3-0.1,0.4,0l54.5,45.5
			c0.1,0.1,0.1,0.2,0.1,0.3s-0.1,0.2-0.3,0.2L239.9,216.2L239.9,216.2z M353.8,151.5l-112.4,63.9l166.1-19L353.8,151.5z"/>
	</g>
	<g id="triangle36_26_">
		<path class="st1" d="M408.3,196.9c-0.1,0-0.2,0-0.2-0.1l-54.5-45.5c-0.1-0.1-0.1-0.2-0.1-0.4c0-0.1,0.2-0.2,0.3-0.2l34.5-1.8
			c0.1,0,0.3,0.1,0.3,0.2l19.9,47.2c0,0.1,0.1,0.1,0.1,0.2C408.7,196.8,408.6,196.9,408.3,196.9L408.3,196.9z M354.7,151.4
			l52.8,44.1l-19.4-45.8L354.7,151.4z"/>
	</g>
	<g id="triangle36_25_">
		<path class="st1" d="M429.2,197.6L429.2,197.6l-20.9-0.7c-0.1,0-0.2-0.1-0.3-0.2l-20-47.3c-0.1-0.2,0-0.3,0.1-0.4
			c0.1-0.1,0.3-0.1,0.4,0.1l40.8,48c0.1,0.1,0.1,0.2,0,0.4C429.4,197.6,429.3,197.6,429.2,197.6z M408.6,196.3l19.9,0.7l-39-45.8
			L408.6,196.3z"/>
	</g>
	<g id="triangle36_24_">
		<path class="st1" d="M239.2,139.4c-0.1,0-0.1,0-0.2-0.1c-0.1-0.1-0.2-0.3-0.1-0.4l16.6-40.2c0-0.1,0.2-0.2,0.3-0.2
			s0.2,0.1,0.3,0.2l7.6,13.9c0.1,0.1,0,0.3,0,0.4l-24.2,26.3C239.4,139.3,239.3,139.4,239.2,139.4z M255.8,99.6l-15.6,37.8
			l22.7-24.7L255.8,99.6z"/>
	</g>
	<g id="triangle36_23_">
		<path class="st1" d="M263.3,113.1L263.3,113.1c-0.2,0-0.2-0.1-0.3-0.2L255.5,99c0-0.1-0.1-0.2,0-0.3c0-0.1,0.1-0.2,0.2-0.2l29-6.8
			c0.1,0,0.3,0,0.4,0.2c0.1,0.1,0,0.3-0.1,0.4L263.6,113C263.5,113.1,263.4,113.1,263.3,113.1z M256.3,99.1l7.2,13.1l20.2-19.6
			L256.3,99.1z"/>
	</g>
	<g id="triangle36_22_">
		<path class="st1" d="M255.8,99.2c-0.1,0-0.2-0.1-0.3-0.2s0-0.3,0.1-0.4l34.3-25c0.1-0.1,0.3-0.1,0.4,0s0.2,0.2,0.1,0.4L285,92.1
			c0,0.1-0.1,0.2-0.2,0.2L255.8,99.2L255.8,99.2z M289.5,74.7l-32.2,23.4l27.2-6.4L289.5,74.7z"/>
	</g>
	<g id="triangle36_21_">
		<path class="st1" d="M337.4,100.4c-0.1,0-0.1,0-0.2,0l-47.3-26.2c-0.1-0.1-0.2-0.2-0.2-0.3c0-0.1,0.1-0.2,0.2-0.3L335.7,51
			c0.1-0.1,0.2,0,0.3,0c0.1,0.1,0.2,0.2,0.2,0.3l1.6,48.8c0,0.1-0.1,0.2-0.2,0.3C337.5,100.4,337.4,100.4,337.4,100.4z M290.8,73.9
			L337,99.5l-1.5-47.7L290.8,73.9z"/>
	</g>
	<g id="triangle36_20_">
		<path class="st1" d="M290.1,74.2c-0.1,0-0.1,0-0.2-0.1s-0.1-0.2-0.1-0.3l5.6-28.3c0-0.2,0.2-0.3,0.4-0.3l40.1,5.7
			c0.1,0,0.3,0.1,0.3,0.3c0,0.1-0.1,0.3-0.2,0.3l-45.7,22.6C290.2,74.2,290.1,74.2,290.1,74.2z M296,46l-5.4,27.3l44.2-21.8L296,46z
			"/>
	</g>
	<g id="triangle36_19_">
		<path class="st1" d="M337.4,100.4c-0.1,0-0.2,0-0.2-0.1c-0.1-0.1-0.1-0.1-0.1-0.2l-1.6-48.8c0-0.1,0.1-0.3,0.2-0.3
			c0.1-0.1,0.3,0,0.4,0.1l40.1,45c0.1,0.1,0.1,0.2,0.1,0.3c0,0.1-0.2,0.2-0.3,0.2L337.4,100.4L337.4,100.4z M336.2,52.2l1.5,47.5
			l37.6-3.6L336.2,52.2z"/>
	</g>
	<g id="triangle36_18_">
		<path class="st1" d="M335.8,51.6L335.8,51.6l-40.1-5.7c-0.2,0-0.3-0.2-0.3-0.3l0.3-7.8c0-0.1,0.1-0.2,0.1-0.3
			c0.1-0.1,0.2-0.1,0.3,0L335.9,51c0.2,0,0.3,0.2,0.3,0.3C336.1,51.5,336,51.6,335.8,51.6L335.8,51.6z M296.1,45.3l36.3,5.2
			l-35.9-12.2L296.1,45.3z"/>
	</g>
	<g id="triangle36_17_">
		<path class="st1" d="M335.8,51.6h-0.1L296,38.1c-0.1,0-0.2-0.2-0.2-0.3s0.1-0.3,0.2-0.3l30.5-14.7c0.1,0,0.2,0,0.3,0
			c0.1,0,0.2,0.1,0.2,0.2l9.2,28c0,0.1,0.1,0.1,0.1,0.2C336.1,51.5,336,51.6,335.8,51.6L335.8,51.6z M296.9,37.8l38.3,13l-8.9-27.1
			L296.9,37.8z"/>
	</g>
	<g id="triangle36_16_">
		<path class="st1" d="M375.9,96.7c-0.1,0-0.2,0-0.2-0.1l-40.1-45c-0.1-0.1-0.1-0.2-0.1-0.2c0-0.1,0.1-0.2,0.1-0.2L400-1.7
			c0.1-0.1,0.3-0.1,0.4,0s0.2,0.2,0.1,0.4l-24.3,97.8C376.2,96.5,376.1,96.6,375.9,96.7C376,96.7,376,96.7,375.9,96.7z M336.3,51.3
			l39.5,44.3l23.9-96.2L336.3,51.3z"/>
	</g>
	<g id="triangle36_15_">
		<path class="st1" d="M335.8,51.6C335.8,51.6,335.7,51.6,335.8,51.6c-0.2,0-0.3-0.1-0.3-0.2l-9.2-28.1c-0.1-0.2,0-0.4,0.2-0.4
			l73.6-24.6c0.1-0.1,0.3,0,0.4,0.2c0.1,0.1,0,0.3-0.1,0.4L336,51.6C335.9,51.6,335.9,51.6,335.8,51.6z M327,23.4l9,27.4l62.6-51.3
			L327,23.4z"/>
	</g>
	<g id="triangle36_14_">
		<path class="st1" d="M407.8,291.1h-0.1l-167.9-74.9c-0.1-0.1-0.2-0.2-0.2-0.4c0-0.1,0.1-0.3,0.3-0.3l168.5-19.3
			c0.1,0,0.2,0,0.3,0.1c0.1,0.1,0.1,0.2,0.1,0.2l-0.5,94.2c0,0.1-0.1,0.2-0.2,0.3C407.9,291.1,407.9,291.1,407.8,291.1z M241.1,216
			l166.4,74.2l0.5-93.3L241.1,216z"/>
	</g>
	<g id="triangle36_13_">
		<path class="st1" d="M239.9,216.2C239.8,216.2,239.8,216.2,239.9,216.2l-10.3-2.5c-0.1,0-0.2-0.1-0.2-0.2l-14.8-35.6
			c-0.1-0.2,0-0.3,0.2-0.4c0.2-0.1,0.3,0,0.4,0.1l25,38.1c0.1,0.1,0.1,0.3,0,0.4C240.1,216.1,240,216.2,239.9,216.2z M229.9,213.1
			l9.2,2.2l-22.6-34.4L229.9,213.1z"/>
	</g>
	<g id="triangle36_12_">
		<path class="st1" d="M469.9,93.1c-0.1,0-0.2-0.1-0.3-0.1L399.9-1.2c-0.1-0.1-0.1-0.3,0-0.4s0.3-0.1,0.4-0.1L492,52.6
			c0.2,0.1,0.2,0.3,0.1,0.4l-21.9,39.8C470.1,93,470,93.1,469.9,93.1L469.9,93.1z M401.4-0.3l68.4,92.4L491.4,53L401.4-0.3z"/>
	</g>
	<g id="triangle36_11_">
		<path class="st1" d="M375.9,96.7c-0.1,0-0.2,0-0.3-0.1c-0.1-0.1-0.1-0.2-0.1-0.3l24.3-97.8c0-0.1,0.1-0.2,0.3-0.2
			c0.1,0,0.3,0,0.3,0.1l69.7,94.2c0.1,0.1,0.1,0.2,0,0.3c-0.1,0.1-0.2,0.2-0.3,0.2L375.9,96.7C376,96.7,376,96.7,375.9,96.7z
			 M400.4-0.7l-24,96.7l92.9-3.5L400.4-0.7z"/>
	</g>
	<g id="triangle36_10_">
		<path class="st1" d="M417.1,304.3c-0.1,0-0.2-0.1-0.3-0.1l-9.4-13.2c-0.1-0.1-0.1-0.3,0-0.4s0.2-0.2,0.4-0.1l9.6,3.1
			c0.1,0,0.2,0.2,0.2,0.3l-0.3,10.1C417.5,304.1,417.4,304.3,417.1,304.3C417.2,304.3,417.2,304.3,417.1,304.3z M408.6,291.4
			l8.2,11.6l0.2-8.9L408.6,291.4z"/>
	</g>
	<g id="triangle36_9_">
		<path class="st1" d="M417.4,294.2h-0.1l-9.6-3.1c-0.2-0.1-0.3-0.2-0.2-0.4l13.1-73.4c0-0.2,0.2-0.3,0.4-0.3c0.2,0,0.3,0.2,0.3,0.3
			l-3.5,76.4c0,0.1-0.1,0.2-0.1,0.3C417.5,294.2,417.5,294.2,417.4,294.2z M408.2,290.5l8.9,2.9l3.2-71L408.2,290.5z"/>
	</g>
	<g id="triangle36_8_">
		<path class="st1" d="M407.8,291.1L407.8,291.1c-0.2,0-0.3-0.2-0.3-0.3l0.5-94.2c0-0.1,0.1-0.3,0.2-0.3s0.3,0,0.4,0.1l12.6,20.8
			c0,0.1,0.1,0.2,0,0.2l-13.1,73.4C408.1,291,407.9,291.1,407.8,291.1z M408.7,197.8l-0.5,89.1l12.4-69.4L408.7,197.8z"/>
	</g>
	<g id="triangle36_7_">
		<path class="st1" d="M420.9,217.7c-0.1,0-0.2-0.1-0.3-0.2L408,196.7c-0.1-0.1-0.1-0.2,0-0.3s0.2-0.2,0.3-0.2l20.9,0.7
			c0.1,0,0.2,0.1,0.3,0.2c0.1,0.1,0.1,0.2,0,0.3l-8.3,20.1C421.2,217.6,421.1,217.7,420.9,217.7L420.9,217.7z M408.9,196.9
			l11.9,19.7l7.9-19L408.9,196.9z"/>
	</g>
	<g id="triangle36_6_">
		<path class="st1" d="M490.3,117.7c-0.1,0-0.2,0-0.3-0.1L469.7,93c-0.1-0.1-0.1-0.2-0.1-0.3c0-0.1,0.1-0.2,0.2-0.2l47.9-29.8
			c0.1-0.1,0.3-0.1,0.4,0c0.1,0.1,0.1,0.3,0.1,0.4l-27.4,54.4C490.6,117.6,490.5,117.7,490.3,117.7
			C490.4,117.7,490.4,117.7,490.3,117.7z M470.4,92.8l19.9,23.9L517,63.8L470.4,92.8z"/>
	</g>
	<g id="triangle36_5_">
		<path class="st1" d="M469.9,93.1c-0.1,0-0.2,0-0.2-0.1c-0.1-0.1-0.1-0.3-0.1-0.4l21.9-39.8c0.1-0.1,0.3-0.2,0.4-0.1l25.9,10
			c0.1,0,0.2,0.2,0.2,0.3s0,0.2-0.2,0.3L470.1,93C470,93.1,470,93.1,469.9,93.1z M492,53.3l-21.2,38.5L517,63L492,53.3z"/>
	</g>
	<g id="triangle36_4_">
		<path class="st1" d="M443,126c-0.1,0-0.2-0.1-0.3-0.2c-0.1-0.1-0.1-0.3,0-0.4l26.9-32.9c0.1-0.1,0.2-0.1,0.3-0.1l0,0
			c0.1,0,0.2,0,0.3,0.1l20.4,24.6c0.1,0.1,0.1,0.2,0.1,0.3c0,0.1-0.1,0.2-0.3,0.2L443,126L443,126z M469.9,93.3l-26.1,31.9l45.9-8.1
			L469.9,93.3z"/>
	</g>
	<g id="triangle36_3_">
		<path class="st1" d="M429.2,197.6c-0.1,0-0.2,0-0.3-0.1l-40.8-48c-0.1-0.1-0.1-0.2-0.1-0.3s0.1-0.2,0.2-0.2l54.6-23.6
			c0.1,0,0.2,0,0.3,0c0.1,0.1,0.1,0.2,0.1,0.3l-13.8,71.6C429.5,197.5,429.4,197.6,429.2,197.6C429.3,197.6,429.2,197.6,429.2,197.6
			z M388.9,149.5l40.1,47.1l13.5-70.3L388.9,149.5z"/>
	</g>
	<g id="triangle36_2_">
		<path class="st1" d="M388.4,149.7c-0.1,0-0.1,0-0.1,0c-0.1,0-0.2-0.1-0.2-0.2l-12.4-53c0-0.1,0-0.3,0.1-0.3c0.1-0.1,0.2-0.1,0.3,0
			l67,29.4c0.1,0.1,0.2,0.2,0.2,0.3c0,0.1-0.1,0.3-0.2,0.3l-54.6,23.6C388.5,149.6,388.4,149.7,388.4,149.7z M376.4,96.9l12.2,52
			l53.6-23.2L376.4,96.9z"/>
	</g>
	<g id="triangle36_1_">
		<path class="st1" d="M443,126h-0.1l-67-29.4c-0.1-0.1-0.2-0.2-0.2-0.4c0-0.2,0.2-0.3,0.3-0.3l94-3.6c0.1,0,0.3,0.1,0.3,0.2
			c0.1,0.1,0,0.3,0,0.4l-26.9,32.9C443.2,126,443.1,126,443,126z M377.4,96.6l65.5,28.7l26.3-32.2L377.4,96.6z"/>
	</g>
</g>
<g class="st0">
	<g id="triangle36_117_">
		<path class="st1" d="M309.9,802.8c0,0.1,0,0.1,0,0.2l-8.3,16c-0.1,0.1-0.2,0.2-0.3,0.2c-0.1,0-0.2-0.1-0.3-0.2l-8.7-19.8
			c0-0.1,0-0.2,0-0.3c0.1-0.1,0.2-0.1,0.3-0.1l17,3.8C309.7,802.6,309.8,802.7,309.9,802.8L309.9,802.8z M301.3,818.1l7.8-15
			l-15.9-3.6L301.3,818.1z"/>
	</g>
	<g id="triangle36_116_">
		<path class="st1" d="M301.6,818.8c0,0.1,0,0.2-0.1,0.3s-0.3,0.1-0.4,0l-26.8-23.5c-0.1-0.1-0.1-0.3-0.1-0.4
			c0.1-0.1,0.2-0.2,0.4-0.2l18.2,3.7c0.1,0,0.2,0.1,0.2,0.2l8.7,19.8C301.6,818.7,301.6,818.8,301.6,818.8z M275.6,795.9l24.8,21.7
			l-8-18.3L275.6,795.9z"/>
	</g>
	<g id="triangle36_115_">
		<path class="st1" d="M292.9,799L292.9,799c-0.1,0.2-0.2,0.3-0.4,0.3l-18.2-3.7c-0.1,0-0.1,0-0.2-0.1l-21.3-20.8
			c-0.1-0.1-0.1-0.3,0-0.4c0.1-0.1,0.3-0.2,0.4-0.1l39.5,24.6C292.9,798.8,292.9,798.9,292.9,799z M274.6,795l16.3,3.3l-35.3-22
			L274.6,795z"/>
	</g>
	<g id="triangle36_114_">
		<path class="st1" d="M292.9,799c0,0.1,0,0.2-0.1,0.3s-0.3,0.1-0.4,0L253,774.8c-0.1-0.1-0.2-0.2-0.2-0.3l6.7-52.8
			c0-0.1,0.1-0.3,0.3-0.3c0.1,0,0.3,0.1,0.4,0.2L292.9,799L292.9,799z M253.5,774.3l38.4,23.9l-31.8-75.3L253.5,774.3z"/>
	</g>
	<g id="triangle36_113_">
		<path class="st1" d="M260.2,721.6C260.2,721.6,260.2,721.7,260.2,721.6l-6.7,52.9c0,0.1-0.1,0.2-0.1,0.2c-0.1,0.1-0.2,0.1-0.3,0
			l-18.3-4.9c-0.1,0-0.2-0.1-0.2-0.2c0-0.1,0-0.2,0-0.3l25-47.9c0-0.1,0.2-0.2,0.3-0.2C260.1,721.3,260.2,721.4,260.2,721.6
			L260.2,721.6z M252.9,774.1l6.5-50.6l-24,45.9L252.9,774.1z"/>
	</g>
	<g id="triangle36_112_">
		<path class="st1" d="M341,842.2c0,0.1,0,0.2-0.1,0.2c-0.1,0.1-0.3,0.1-0.4,0.1l-39.4-23.4c-0.2-0.1-0.2-0.3-0.1-0.4l8.3-16
			c0.1-0.1,0.2-0.2,0.3-0.2c0.1,0,0.2,0,0.3,0.1l31,39.4C340.9,842.1,341,842.1,341,842.2z M301.7,818.7l37.6,22.3l-29.6-37.6
			L301.7,818.7z"/>
	</g>
	<g id="triangle36_111_">
		<path class="st1" d="M378.4,816.2c0,0.1,0,0.2-0.1,0.3l-37.4,26c-0.1,0.1-0.3,0.1-0.4-0.1l-31-39.4c-0.1-0.1-0.1-0.3,0-0.4
			c0.1-0.1,0.2-0.2,0.3-0.2l68.5,13.4C378.3,815.9,378.4,816,378.4,816.2L378.4,816.2z M340.7,841.8l36.5-25.3l-66.8-13.1
			L340.7,841.8z"/>
	</g>
	<g id="triangle36_110_">
		<path class="st1" d="M378.4,816.2c0,0.1,0,0.1-0.1,0.2c-0.1,0.1-0.2,0.2-0.3,0.1l-68.5-13.4c-0.2,0-0.3-0.1-0.3-0.3l0.9-99
			c0-0.1,0.1-0.3,0.2-0.3s0.3,0,0.4,0.1L378.3,816C378.4,816.1,378.4,816.2,378.4,816.2z M309.9,802.6l67.5,13.2L310.8,705
			L309.9,802.6z"/>
	</g>
	<g id="triangle36_109_">
		<path class="st1" d="M310.8,703.8L310.8,703.8C310.8,703.9,310.8,703.9,310.8,703.8l-0.9,99c0,0.1,0,0.2-0.1,0.3s-0.2,0.1-0.3,0.1
			l-17-3.8c-0.2,0-0.3-0.2-0.3-0.4l17.9-95.2c0-0.2,0.1-0.3,0.3-0.3C310.6,703.5,310.8,703.7,310.8,703.8z M309.3,802.4l0.8-94.8
			L293,798.8L309.3,802.4z"/>
	</g>
	<g id="triangle36_108_">
		<path class="st1" d="M310.8,703.9L310.8,703.9l-17.9,95.3c0,0.1-0.1,0.3-0.3,0.3c-0.1,0-0.3-0.1-0.3-0.2l-32.7-77.4
			c0-0.1,0-0.2,0-0.3s0.1-0.1,0.2-0.2l50.5-17.7c0.1,0,0.1-0.1,0.2-0.1C310.6,703.5,310.8,703.6,310.8,703.9
			C310.8,703.8,310.8,703.8,310.8,703.9z M292.5,797.9l17.6-93.6l-49.7,17.5L292.5,797.9z"/>
	</g>
	<g id="triangle36_107_">
		<path class="st1" d="M310.8,703.9c0,0.1,0,0.2-0.1,0.3s-0.2,0.1-0.3,0l-55.3-20.7c-0.1-0.1-0.2-0.2-0.2-0.3s0.1-0.3,0.2-0.3
			l52.7-13.7c0.1,0,0.2,0,0.3,0.1c0.1,0.1,0.1,0.1,0.1,0.2L310.8,703.9C310.8,703.8,310.8,703.8,310.8,703.9z M256.3,683.2
			l53.8,20.1l-2.5-33.5L256.3,683.2z"/>
	</g>
	<g id="triangle36_106_">
		<path class="st1" d="M310.8,703.9L310.8,703.9c0,0.2-0.1,0.3-0.2,0.3L260,722c-0.1,0-0.2,0-0.3,0c-0.1-0.1-0.1-0.1-0.2-0.2
			l-4.7-38.5c0-0.1,0-0.2,0.1-0.3s0.2-0.1,0.3,0l55.3,20.7C310.7,703.6,310.8,703.7,310.8,703.9z M260.2,721.2l49.3-17.3l-53.9-20.2
			L260.2,721.2z"/>
	</g>
	<g id="triangle36_105_">
		<path class="st1" d="M378.4,816.2c0,0.1-0.1,0.3-0.2,0.3c-0.1,0.1-0.3,0-0.4-0.1L310.2,704c-0.1-0.1-0.1-0.3,0-0.4l44.1-55.6
			c0.1-0.1,0.2-0.1,0.3-0.1c0.1,0,0.2,0.1,0.2,0.3L378.4,816.2L378.4,816.2z M310.9,703.9l66.6,110.8l-23.1-165.6L310.9,703.9z"/>
	</g>
	<g id="triangle36_104_">
		<path class="st1" d="M354.9,648.3c0,0.1,0,0.2-0.1,0.2l-44.1,55.6c-0.1,0.1-0.2,0.2-0.4,0.1c-0.1,0-0.2-0.2-0.2-0.3l-2.6-34.4
			c0-0.1,0.1-0.3,0.2-0.3l46.7-21.1c0.1-0.1,0.1-0.1,0.2-0.1C354.8,647.9,354.9,648.1,354.9,648.3L354.9,648.3z M310.7,703
			l42.8-53.8l-45.3,20.5L310.7,703z"/>
	</g>
	<g id="triangle36_103_">
		<path class="st1" d="M355.1,627.4L355.1,627.4l-0.2,20.9c0,0.1-0.1,0.2-0.2,0.3L308,669.7c-0.1,0.1-0.3,0-0.4-0.1
			s-0.1-0.3,0.1-0.4l47-42c0.1-0.1,0.2-0.1,0.4-0.1C355.1,627.2,355.1,627.3,355.1,627.4z M354.3,648.1l0.2-19.9l-44.8,40.1
			L354.3,648.1z"/>
	</g>
	<g id="triangle36_102_">
		<path class="st1" d="M301.6,818.8c0,0.1,0,0.1,0,0.2c-0.1,0.1-0.3,0.2-0.4,0.1l-40.6-15.6c-0.1,0-0.2-0.2-0.2-0.3s0.1-0.2,0.2-0.3
			l13.7-7.9c0.1-0.1,0.3-0.1,0.4,0l26.8,23.5C301.6,818.6,301.6,818.7,301.6,818.8z M261.5,803.2l38.2,14.7l-25.3-22.1L261.5,803.2z
			"/>
	</g>
	<g id="triangle36_101_">
		<path class="st1" d="M274.8,795.3C274.8,795.3,274.7,795.3,274.8,795.3c0,0.2-0.1,0.2-0.2,0.3l-13.7,7.9c-0.1,0.1-0.2,0.1-0.3,0
			c-0.1,0-0.2-0.1-0.2-0.2l-7.6-28.8c0-0.1,0-0.3,0.2-0.4c0.1-0.1,0.3-0.1,0.4,0.1l21.3,20.8C274.7,795.1,274.7,795.2,274.8,795.3z
			 M260.9,802.8l13-7.5l-20.1-19.7L260.9,802.8z"/>
	</g>
	<g id="triangle36_100_">
		<path class="st1" d="M261,803.2c0,0.1-0.1,0.2-0.2,0.3s-0.3,0-0.4-0.1l-25.8-33.7c-0.1-0.1-0.1-0.3,0-0.4c0.1-0.1,0.2-0.2,0.4-0.1
			l18.3,4.9c0.1,0,0.2,0.1,0.2,0.2L261,803.2L261,803.2z M235.7,770.1l24.2,31.6l-7.1-27L235.7,770.1z"/>
	</g>
	<g id="triangle36_99_">
		<path class="st1" d="M260.2,721.6c0,0.1,0,0.1,0,0.2l-25,47.9c-0.1,0.1-0.2,0.2-0.3,0.2s-0.2-0.1-0.3-0.2l-23.7-45.1
			c-0.1-0.1-0.1-0.2,0-0.3s0.2-0.2,0.3-0.2l48.7-2.8C260,721.3,260.1,721.4,260.2,721.6C260.2,721.5,260.2,721.6,260.2,721.6z
			 M234.9,768.8l24.5-46.8l-47.6,2.7L234.9,768.8z"/>
	</g>
	<g id="triangle36_98_">
		<path class="st1" d="M235.2,769.5c0,0.1,0,0.1-0.1,0.2c-0.1,0.1-0.2,0.2-0.3,0.1l-28.4-4.9c-0.2,0-0.3-0.2-0.3-0.4l4.7-40.2
			c0-0.1,0.1-0.3,0.3-0.3c0.1,0,0.3,0,0.4,0.2l23.7,45.1C235.2,769.4,235.2,769.5,235.2,769.5z M206.8,764.3l27.5,4.8l-22.9-43.6
			L206.8,764.3z"/>
	</g>
	<g id="triangle36_97_">
		<path class="st1" d="M260.2,721.6c0,0.1,0,0.2-0.1,0.2c-0.1,0.1-0.1,0.1-0.2,0.1l-48.7,2.8c-0.1,0-0.3-0.1-0.3-0.2
			c-0.1-0.1,0-0.3,0.1-0.4l44-41.3c0.1-0.1,0.2-0.1,0.3-0.1s0.2,0.1,0.2,0.3L260.2,721.6L260.2,721.6z M212.1,724l47.5-2.7
			l-4.6-37.5L212.1,724z"/>
	</g>
	<g id="triangle36_96_">
		<path class="st1" d="M211.5,724.4L211.5,724.4l-4.7,40.3c0,0.2-0.2,0.3-0.3,0.3l-7.8-0.2c-0.1,0-0.2-0.1-0.3-0.1
			c-0.1-0.1-0.1-0.2,0-0.3l12.5-40c0-0.2,0.2-0.3,0.3-0.3C211.3,724.1,211.5,724.2,211.5,724.4L211.5,724.4z M206.2,764.3l4.3-36.4
			l-11.3,36.2L206.2,764.3z"/>
	</g>
	<g id="triangle36_95_">
		<path class="st1" d="M211.5,724.4L211.5,724.4L199,764.6c0,0.1-0.2,0.2-0.3,0.2s-0.3-0.1-0.3-0.2L183,734.5c0-0.1,0-0.2,0-0.3
			s0.1-0.2,0.2-0.2l27.8-9.9c0.1,0,0.1-0.1,0.2-0.1C211.3,724.1,211.5,724.2,211.5,724.4L211.5,724.4z M198.6,763.6l12-38.6
			l-26.9,9.6L198.6,763.6z"/>
	</g>
	<g id="triangle36_94_">
		<path class="st1" d="M255.5,683.2c0,0.1,0,0.2-0.1,0.2l-44,41.3c-0.1,0.1-0.2,0.1-0.2,0.1c-0.1,0-0.2,0-0.2-0.1l-54.3-63.1
			c-0.1-0.1-0.1-0.3,0-0.4c0.1-0.1,0.2-0.2,0.4-0.2l98.3,21.8C255.4,682.9,255.5,683,255.5,683.2
			C255.5,683.1,255.5,683.1,255.5,683.2z M211.2,723.9l43.3-40.6l-96.7-21.5L211.2,723.9z"/>
	</g>
	<g id="triangle36_93_">
		<path class="st1" d="M211.5,724.4C211.5,724.4,211.5,724.5,211.5,724.4c0,0.2-0.1,0.3-0.2,0.3l-27.9,9.9c-0.2,0.1-0.4,0-0.4-0.2
			l-26.4-73c-0.1-0.1,0-0.3,0.1-0.4c0.1-0.1,0.3-0.1,0.4,0.1l54.3,63.1C211.5,724.3,211.5,724.3,211.5,724.4z M183.5,733.9l27.1-9.7
			l-52.8-61.3L183.5,733.9z"/>
	</g>
	<g id="triangle36_92_">
		<path class="st1" d="M449.1,646.5L449.1,646.5l-70.7,169.8c-0.1,0.1-0.2,0.2-0.3,0.2c-0.1,0-0.3-0.1-0.3-0.3l-23.5-168
			c0-0.1,0-0.2,0.1-0.3s0.2-0.1,0.2-0.1l94.2-1.8c0.1,0,0.2,0.1,0.3,0.1C449.1,646.4,449.1,646.4,449.1,646.5z M378.2,815l70-168.1
			l-93.3,1.8L378.2,815z"/>
	</g>
	<g id="triangle36_91_">
		<path class="st1" d="M378.4,816.2C378.4,816.3,378.4,816.3,378.4,816.2l-2.2,10.3c0,0.1-0.1,0.2-0.2,0.2l-35.2,15.7
			c-0.2,0.1-0.3,0-0.4-0.1s0-0.3,0.1-0.4l37.4-26c0.1-0.1,0.3-0.1,0.4,0C378.3,816,378.4,816.1,378.4,816.2z M375.6,826.3l2-9.3
			l-33.8,23.5L375.6,826.3z"/>
	</g>
	<g id="triangle36_90_">
		<path class="st1" d="M249.6,589.3c0,0.1,0,0.2-0.1,0.3l-92.4,72c-0.1,0.1-0.3,0.1-0.4,0c-0.1-0.1-0.1-0.3-0.1-0.4l52-93
			c0.1-0.2,0.3-0.2,0.4-0.1l40.4,20.9C249.5,589.1,249.6,589.2,249.6,589.3L249.6,589.3z M157.9,660.1l90.7-70.7L209,568.8
			L157.9,660.1z"/>
	</g>
	<g id="triangle36_89_">
		<path class="st1" d="M255.5,683.2c0,0.1,0,0.2-0.1,0.3s-0.2,0.1-0.3,0.1l-98.3-21.8c-0.1,0-0.2-0.1-0.3-0.3c0-0.1,0-0.3,0.1-0.3
			l92.4-72c0.1-0.1,0.2-0.1,0.3,0c0.1,0,0.2,0.2,0.2,0.3L255.5,683.2C255.5,683.1,255.5,683.1,255.5,683.2z M157.6,661.2l97.2,21.6
			L249,590L157.6,661.2z"/>
	</g>
	<g id="triangle36_88_">
		<path class="st1" d="M462.1,636.8c0,0.1,0,0.2-0.1,0.3l-13,9.7c-0.1,0.1-0.3,0.1-0.4,0s-0.2-0.2-0.1-0.4l2.8-9.7
			c0-0.1,0.2-0.2,0.3-0.2h10.1C461.9,636.5,462,636.6,462.1,636.8L462.1,636.8z M449.4,645.7l11.4-8.5h-8.9L449.4,645.7z"/>
	</g>
	<g id="triangle36_87_">
		<path class="st1" d="M451.9,636.8L451.9,636.8l-2.8,9.8c0,0.2-0.2,0.3-0.4,0.2L375,635.5c-0.2,0-0.3-0.2-0.3-0.4s0.2-0.3,0.3-0.3
			l76.5,1.6c0.1,0,0.2,0.1,0.3,0.1C451.9,636.7,451.9,636.7,451.9,636.8z M448.5,646.1l2.6-9l-71-1.5L448.5,646.1z"/>
	</g>
	<g id="triangle36_86_">
		<path class="st1" d="M449.1,646.5L449.1,646.5c0,0.2-0.2,0.3-0.3,0.3l-94.2,1.8c-0.1,0-0.3-0.1-0.3-0.2c0-0.1,0-0.3,0.1-0.4
			l20.5-13.1c0.1,0,0.1-0.1,0.2,0l73.7,11.3C449,646.2,449.1,646.3,449.1,646.5z M355.8,647.9l89.1-1.7l-69.7-10.7L355.8,647.9z"/>
	</g>
	<g id="triangle36_85_">
		<path class="st1" d="M375.4,635.2c0,0.1-0.1,0.2-0.2,0.3l-20.5,13.1c-0.1,0.1-0.2,0.1-0.3,0c-0.1-0.1-0.2-0.2-0.2-0.3l0.2-20.9
			c0-0.1,0.1-0.2,0.1-0.3c0.1-0.1,0.2-0.1,0.3,0l20.3,7.8C375.3,634.9,375.4,635,375.4,635.2L375.4,635.2z M354.9,647.7l19.4-12.4
			l-19.2-7.4L354.9,647.7z"/>
	</g>
	<g id="triangle36_84_">
		<path class="st1" d="M273.7,568.3c0,0.1,0,0.2-0.1,0.3l-24.1,21c-0.1,0.1-0.2,0.1-0.3,0.1s-0.2-0.1-0.2-0.1l-31-47.1
			c-0.1-0.1-0.1-0.3,0-0.4c0.1-0.1,0.3-0.1,0.4-0.1l55.1,26.1C273.6,568,273.7,568.1,273.7,568.3
			C273.7,568.2,273.7,568.3,273.7,568.3z M249.4,588.8l23.4-20.5L219.2,543L249.4,588.8z"/>
	</g>
	<g id="triangle36_83_">
		<path class="st1" d="M249.6,589.3c0,0.1,0,0.2-0.1,0.2c-0.1,0.1-0.3,0.1-0.4,0.1l-40.4-20.9c-0.1-0.1-0.2-0.2-0.2-0.4l9.4-26.2
			c0-0.1,0.1-0.2,0.3-0.2c0.1,0,0.2,0,0.3,0.1l31,47.1C249.6,589.2,249.6,589.2,249.6,589.3z M209.3,568.2l39,20.2l-30-45.5
			L209.3,568.2z"/>
	</g>
	<g id="triangle36_82_">
		<path class="st1" d="M283.2,615.4c0,0.1-0.1,0.2-0.2,0.3s-0.3,0.1-0.4,0L249,589.6c-0.1-0.1-0.1-0.2-0.1-0.3l0,0
			c0-0.1,0-0.2,0.1-0.3l24.1-21c0.1-0.1,0.2-0.1,0.3-0.1c0.1,0,0.2,0.1,0.2,0.2L283.2,615.4L283.2,615.4z M249.8,589.3l32.6,25.3
			l-9.2-45.7L249.8,589.3z"/>
	</g>
	<g id="triangle36_81_">
		<path class="st1" d="M355.1,627.4c0,0.1,0,0.2-0.1,0.3l-47,42c-0.1,0.1-0.2,0.1-0.3,0.1c-0.1,0-0.2-0.1-0.2-0.2l-25-54
			c-0.1-0.1,0-0.2,0-0.3c0.1-0.1,0.2-0.1,0.3-0.1l71.9,12C355,627.1,355.1,627.2,355.1,627.4L355.1,627.4z M308,668.9l46.1-41.3
			l-70.6-11.8L308,668.9z"/>
	</g>
	<g id="triangle36_80_">
		<path class="st1" d="M308.2,669.4c0,0.1,0,0.1,0,0.2c0,0.1-0.1,0.2-0.2,0.2l-52.7,13.7c-0.1,0-0.3,0-0.3-0.1
			c-0.1-0.1-0.1-0.2-0.1-0.3l27.7-67.7c0-0.1,0.2-0.2,0.3-0.2c0.1,0,0.3,0.1,0.3,0.2L308.2,669.4
			C308.2,669.3,308.2,669.4,308.2,669.4z M255.7,682.7l51.6-13.5l-24.5-53L255.7,682.7z"/>
	</g>
	<g id="triangle36_79_">
		<path class="st1" d="M283.2,615.4L283.2,615.4l-27.7,67.8c-0.1,0.1-0.2,0.2-0.4,0.2s-0.3-0.2-0.3-0.3l-5.9-93.8
			c0-0.1,0.1-0.3,0.2-0.3c0.1-0.1,0.3,0,0.4,0l33.6,26.1C283.2,615.2,283.2,615.3,283.2,615.4z M255.4,681.7l27.1-66.2L249.7,590
			L255.4,681.7z"/>
	</g>
</g>
<g class="st0">
	<g id="triangle36_78_">
		<path class="st1" d="M175.9,485.3l-0.1,0.1l-15.7,8.9c-0.1,0.1-0.2,0.1-0.4,0c-0.1-0.1-0.2-0.2-0.1-0.3l3.4-21.3
			c0-0.1,0.1-0.2,0.2-0.3c0.1,0,0.2,0,0.3,0.1l12.2,12.4c0.1,0.1,0.1,0.2,0.1,0.3C175.9,485.2,175.9,485.2,175.9,485.3z
			 M160.4,493.4L175,485l-11.5-11.6L160.4,493.4z"/>
	</g>
	<g id="triangle36_77_">
		<path class="st1" d="M160.2,494.2c-0.1,0.1-0.2,0.2-0.3,0.2c-0.2,0-0.3-0.1-0.3-0.2l-9.8-34.3c0-0.1,0-0.3,0.1-0.4s0.3-0.1,0.4,0
			l13.3,13c0.1,0.1,0.1,0.2,0.1,0.3l-3.4,21.3C160.2,494.1,160.2,494.1,160.2,494.2z M150.8,460.8l9.1,31.7l3.2-19.7L150.8,460.8z"
			/>
	</g>
	<g id="triangle36_76_">
		<path class="st1" d="M163.6,472.9L163.6,472.9c-0.2,0.2-0.4,0.2-0.5,0.1l-13.3-13c0,0-0.1-0.1-0.1-0.2l-6.6-29
			c0-0.2,0.1-0.3,0.2-0.4c0.2-0.1,0.3,0,0.4,0.2l19.8,42C163.7,472.6,163.7,472.8,163.6,472.9z M150.4,459.5l11.9,11.6l-17.8-37.6
			L150.4,459.5z"/>
	</g>
	<g id="triangle36_75_">
		<path class="st1" d="M163.6,472.9c-0.1,0.1-0.1,0.1-0.2,0.2c-0.1,0-0.3-0.1-0.3-0.2l-19.8-42c-0.1-0.1,0-0.3,0-0.4l34.3-40.8
			c0.1-0.1,0.3-0.2,0.4-0.1c0.1,0.1,0.2,0.2,0.2,0.4l-14.4,82.8C163.7,472.8,163.7,472.8,163.6,472.9z M143.9,430.7l19.3,40.9
			l14.1-80.6L143.9,430.7z"/>
	</g>
	<g id="triangle36_74_">
		<path class="st1" d="M178.1,390.1L178.1,390.1l-34.3,40.8c-0.1,0.1-0.2,0.1-0.2,0.1c-0.1,0-0.2,0-0.3-0.1l-12.7-14
			c-0.1-0.1-0.1-0.2-0.1-0.3c0-0.1,0.1-0.2,0.2-0.2l46.9-26.7c0.1-0.1,0.3-0.1,0.4,0C178.1,389.7,178.2,389.9,178.1,390.1
			L178.1,390.1z M143.5,430.1l32.9-39l-45,25.6L143.5,430.1z"/>
	</g>
	<g id="triangle36_73_">
		<path class="st1" d="M180.6,535.2c0,0.1-0.1,0.1-0.2,0.1c-0.2,0-0.3,0-0.4-0.2l-20.4-41c-0.1-0.2,0-0.3,0.1-0.4l15.7-8.9
			c0.1-0.1,0.2-0.1,0.3,0s0.2,0.1,0.2,0.3l4.8,49.9C180.7,535,180.6,535.1,180.6,535.2z M160.4,494.1l19.5,39.1l-4.5-47.6
			L160.4,494.1z"/>
	</g>
	<g id="triangle36_72_">
		<path class="st1" d="M226.1,533.6c-0.1,0.1-0.2,0.2-0.3,0.2l-45.5,1.6c-0.2,0-0.3-0.1-0.3-0.3l-4.8-49.9c0-0.1,0.1-0.3,0.2-0.3
			c0.1-0.1,0.3,0,0.4,0.1l50.3,48.3C226.2,533.3,226.2,533.4,226.1,533.6C226.2,533.6,226.2,533.6,226.1,533.6z M180.6,534.6
			l44.4-1.5l-49-47.2L180.6,534.6z"/>
	</g>
	<g id="triangle36_71_">
		<path class="st1" d="M226.1,533.6c0,0.1-0.1,0.1-0.2,0.1c-0.1,0-0.3,0-0.4-0.1l-50.3-48.3c-0.1-0.1-0.1-0.3,0-0.4l54.4-82.7
			c0.1-0.1,0.2-0.2,0.4-0.1c0.1,0,0.2,0.2,0.2,0.3L226.1,533.6C226.2,533.5,226.2,533.5,226.1,533.6z M176,485l49.5,47.6l4-129.2
			L176,485z"/>
	</g>
	<g id="triangle36_70_">
		<path class="st1" d="M230.2,402.5L230.2,402.5L230.2,402.5l-54.4,82.8c-0.1,0.1-0.1,0.1-0.2,0.1c-0.1,0-0.2,0-0.3-0.1l-12.2-12.4
			c-0.1-0.1-0.1-0.3,0-0.5l66.6-70.3c0.1-0.1,0.3-0.2,0.4-0.1C230.3,402.1,230.3,402.3,230.2,402.5z M175.5,484.6l52.1-79.3
			l-63.8,67.4L175.5,484.6z"/>
	</g>
	<g id="triangle36_69_">
		<path class="st1" d="M230.2,402.5C230.2,402.5,230.2,402.6,230.2,402.5l-66.6,70.4c-0.1,0.1-0.3,0.1-0.4,0.1
			c-0.1-0.1-0.2-0.2-0.2-0.4l14.4-82.8c0-0.1,0.1-0.2,0.1-0.2c0.1-0.1,0.2-0.1,0.3,0l52.1,12.4c0.1,0,0.1,0,0.2,0
			C230.3,402.1,230.4,402.3,230.2,402.5L230.2,402.5z M163.9,471.7l65.4-69.1l-51.2-12.2L163.9,471.7z"/>
	</g>
	<g id="triangle36_68_">
		<path class="st1" d="M230.2,402.5c-0.1,0.1-0.2,0.2-0.3,0.2s-0.2,0-0.3-0.1l-35.2-47.3c-0.1-0.1-0.1-0.3,0-0.4s0.2-0.2,0.4-0.1
			l51.7,17c0.1,0,0.2,0.1,0.2,0.2s0,0.2,0,0.3L230.2,402.5L230.2,402.5z M195.6,355.6l34.3,46.1l16-29.5L195.6,355.6z"/>
	</g>
	<g id="triangle36_67_">
		<path class="st1" d="M230.2,402.5L230.2,402.5c-0.1,0.1-0.2,0.2-0.4,0.2l-52.1-12.5c-0.1,0-0.2-0.1-0.2-0.2s0-0.2,0-0.3l16.9-34.9
			c0-0.1,0.2-0.2,0.3-0.2s0.2,0,0.3,0.1l35.2,47.3C230.3,402.3,230.3,402.4,230.2,402.5z M178.3,389.7l50.9,12.2l-34.4-46.2
			L178.3,389.7z"/>
	</g>
	<g id="triangle36_66_">
		<path class="st1" d="M226.1,533.6c-0.1,0.1-0.2,0.2-0.4,0.1c-0.2,0-0.3-0.2-0.3-0.3l4.1-131.1c0-0.1,0.1-0.3,0.2-0.3l67.2-22.8
			c0.1,0,0.3,0,0.4,0.1s0.1,0.2,0.1,0.4L226.1,533.6C226.2,533.6,226.1,533.6,226.1,533.6z M230.3,402.6l-4,129.2l70.3-151.7
			L230.3,402.6z"/>
	</g>
	<g id="triangle36_65_">
		<path class="st1" d="M297.4,379.7c0,0.1-0.1,0.1-0.2,0.1L230,402.6c-0.1,0-0.3,0-0.4-0.1c-0.1-0.1-0.1-0.3,0-0.4l16.5-30.3
			c0.1-0.1,0.2-0.2,0.3-0.2l50.6,7.5c0.1,0,0.2,0,0.2,0C297.5,379.4,297.6,379.5,297.4,379.7L297.4,379.7z M230.6,401.8l65.1-22.1
			l-49.2-7.3L230.6,401.8z"/>
	</g>
	<g id="triangle36_64_">
		<path class="st1" d="M308.9,362.3L308.9,362.3l-11.5,17.4c-0.1,0.1-0.2,0.2-0.3,0.1l-50.7-7.6c-0.2,0-0.3-0.2-0.3-0.3
			c0-0.2,0.1-0.3,0.3-0.3l62.2-9.9c0.1,0,0.3,0,0.3,0.1C309,362.1,309,362.2,308.9,362.3z M297,379.2l11-16.6l-59.4,9.4L297,379.2z"
			/>
	</g>
	<g id="triangle36_63_">
		<path class="st1" d="M160.2,494.2c0,0.1-0.1,0.1-0.1,0.1c-0.1,0.1-0.3,0-0.4-0.1L134,459.1c-0.1-0.1-0.1-0.2,0-0.4
			c0.1-0.1,0.2-0.2,0.3-0.2l15.8,0.8c0.1,0,0.3,0.1,0.3,0.2l9.8,34.3C160.3,494,160.2,494.1,160.2,494.2z M134.9,459.3l24.1,33
			l-9.2-32.3L134.9,459.3z"/>
	</g>
	<g id="triangle36_62_">
		<path class="st1" d="M150.4,459.9L150.4,459.9c-0.1,0.1-0.2,0.2-0.3,0.2l-15.8-0.8c-0.1,0-0.2-0.1-0.3-0.1c-0.1-0.1-0.1-0.2,0-0.3
			l9.2-28.3c0-0.1,0.2-0.2,0.3-0.2s0.3,0.1,0.3,0.3l6.6,29C150.4,459.7,150.4,459.8,150.4,459.9z M134.7,458.6l15,0.7l-6.2-27.4
			L134.7,458.6z"/>
	</g>
	<g id="triangle36_61_">
		<path class="st1" d="M134.5,459.1c-0.1,0.1-0.2,0.2-0.3,0.2c-0.2,0-0.3-0.1-0.3-0.3l-3.4-42.3c0-0.1,0.1-0.3,0.2-0.3
			c0.1-0.1,0.3,0,0.4,0.1l12.7,14c0.1,0.1,0.1,0.2,0.1,0.3L134.5,459.1C134.6,459,134.6,459.1,134.5,459.1z M131.2,417.6l3.2,39.7
			l8.7-26.5L131.2,417.6z"/>
	</g>
	<g id="triangle36_60_">
		<path class="st1" d="M178.1,390.1l-0.1,0.1l-47,26.7c-0.1,0.1-0.2,0.1-0.3,0s-0.2-0.2-0.2-0.3l4.5-50.8c0-0.1,0.1-0.2,0.2-0.3
			c0.1-0.1,0.2-0.1,0.3,0l42.5,24.1c0.1,0.1,0.2,0.2,0.2,0.3C178.1,389.9,178.1,390,178.1,390.1z M131.2,416l45.9-26.1l-41.5-23.5
			L131.2,416z"/>
	</g>
	<g id="triangle36_59_">
		<path class="st1" d="M131.1,416.8c0,0.1-0.1,0.1-0.2,0.1c-0.1,0-0.3,0-0.3-0.1l-21.2-19.6c-0.1-0.1-0.1-0.3,0-0.5l25.8-31.2
			c0.1-0.1,0.2-0.2,0.4-0.1c0.1,0.1,0.2,0.2,0.2,0.3l-4.5,50.8C131.1,416.7,131.1,416.7,131.1,416.8z M110.1,397l20.5,18.9l4.4-49.1
			L110.1,397z"/>
	</g>
	<g id="triangle36_58_">
		<path class="st1" d="M178.1,390.1c0,0.1-0.1,0.1-0.2,0.1c-0.1,0-0.2,0-0.3,0l-42.5-24.1c-0.1-0.1-0.2-0.2-0.2-0.3
			c0-0.1,0.1-0.2,0.3-0.3l59.4-10.8c0.1,0,0.2,0,0.3,0.1s0.1,0.2,0,0.3L178.1,390.1C178.1,390,178.1,390,178.1,390.1z M136.3,366
			l41.4,23.4l16.5-34L136.3,366z"/>
	</g>
	<g id="triangle36_57_">
		<path class="st1" d="M135.6,366L135.6,366l-25.8,31.3c-0.1,0.1-0.3,0.2-0.4,0.1L103,393c-0.1-0.1-0.1-0.2-0.1-0.3
			c0-0.1,0-0.2,0.1-0.3l32.2-26.9c0.1-0.1,0.3-0.2,0.4-0.1C135.7,365.6,135.7,365.8,135.6,366L135.6,366z M109.5,396.6l23.3-28.3
			l-29.1,24.3L109.5,396.6z"/>
	</g>
	<g id="triangle36_56_">
		<path class="st1" d="M135.6,366L135.6,366l-32.3,27c-0.1,0.1-0.2,0.1-0.4,0c-0.1-0.1-0.2-0.2-0.2-0.3l3.4-33.7
			c0-0.1,0.1-0.2,0.1-0.2c0.1-0.1,0.2-0.1,0.3-0.1l28.7,6.7c0.1,0,0.1,0,0.2,0C135.7,365.6,135.7,365.8,135.6,366L135.6,366z
			 M103.6,391.9l31.1-26l-27.8-6.5L103.6,391.9z"/>
	</g>
	<g id="triangle36_55_">
		<path class="st1" d="M195,355.2c0,0.1-0.1,0.1-0.2,0.2l-59.4,10.8c-0.1,0-0.2,0-0.3-0.1s-0.1-0.1-0.1-0.2l-11.5-82.4
			c0-0.1,0.1-0.3,0.2-0.3c0.1-0.1,0.3,0,0.4,0.1l70.8,71.6C195,354.9,195.1,355,195,355.2C195,355.1,195,355.1,195,355.2z
			 M135.6,365.4l58.4-10.6l-69.7-70.5L135.6,365.4z"/>
	</g>
	<g id="triangle36_54_">
		<path class="st1" d="M135.6,366L135.6,366c-0.1,0.1-0.3,0.2-0.4,0.2l-28.8-6.8c-0.2,0-0.3-0.2-0.2-0.4l17.4-75.7
			c0-0.2,0.2-0.3,0.3-0.3c0.2,0,0.3,0.1,0.3,0.3l11.5,82.4C135.7,365.8,135.7,365.9,135.6,366z M106.9,358.8l28,6.6l-11.2-80.2
			L106.9,358.8z"/>
	</g>
	<g id="triangle36_53_">
		<path class="st1" d="M377.5,429.3l-0.1,0.1L226,533.7c-0.1,0.1-0.3,0.1-0.4,0c-0.1-0.1-0.1-0.3-0.1-0.4l71.3-153.9
			c0-0.1,0.1-0.2,0.2-0.2s0.2,0,0.3,0l80.1,49.5c0.1,0.1,0.2,0.2,0.2,0.3C377.6,429.1,377.6,429.2,377.5,429.3z M226.7,532.5
			l150-103.4L297.3,380L226.7,532.5z"/>
	</g>
	<g id="triangle36_52_">
		<path class="st1" d="M226.1,533.6L226.1,533.6l-7.5,7.5c-0.1,0.1-0.2,0.1-0.3,0.1l-38.1-5.9c-0.2,0-0.3-0.2-0.3-0.3
			c0-0.2,0.1-0.3,0.3-0.3l45.5-1.6c0.1,0,0.3,0.1,0.3,0.2C226.2,533.4,226.2,533.5,226.1,533.6z M218.3,540.5l6.7-6.7l-41.2,1.4
			L218.3,540.5z"/>
	</g>
	<g id="triangle36_51_">
		<path class="st1" d="M240.9,273.1c-0.1,0.1-0.1,0.1-0.3,0.2l-116.7,10.5c-0.2,0-0.3-0.1-0.3-0.2c0-0.2,0-0.3,0.2-0.4l94.1-49.9
			c0.2-0.1,0.4,0,0.4,0.1l22.6,39.5C240.9,272.9,240.9,273,240.9,273.1L240.9,273.1z M125.5,282.9L240,272.6l-22.2-38.8L125.5,282.9
			z"/>
	</g>
	<g id="triangle36_50_">
		<path class="st1" d="M195,355.2c-0.1,0.1-0.1,0.1-0.2,0.2c-0.1,0-0.2,0-0.3-0.1l-70.8-71.6c-0.1-0.1-0.1-0.2-0.1-0.3
			c0-0.1,0.2-0.2,0.3-0.2l116.7-10.5c0.1,0,0.2,0,0.3,0.2c0.1,0.1,0.1,0.2,0,0.3L195,355.2L195,355.2z M124.6,283.6l70,70.8
			l45.4-81.1L124.6,283.6z"/>
	</g>
	<g id="triangle36_49_">
		<path class="st1" d="M393.7,428.2c-0.1,0.1-0.2,0.2-0.3,0.2l-16.2,1.1c-0.1,0-0.3-0.1-0.3-0.2c-0.1-0.1,0-0.3,0.1-0.4l7.6-6.6
			c0.1-0.1,0.3-0.1,0.4,0l8.5,5.5C393.7,427.8,393.8,427.9,393.7,428.2C393.7,428.1,393.7,428.1,393.7,428.2z M378.2,428.7l14.2-1
			l-7.5-4.8L378.2,428.7z"/>
	</g>
	<g id="triangle36_48_">
		<path class="st1" d="M385.2,422.6C385.2,422.7,385.1,422.7,385.2,422.6l-7.7,6.7c-0.1,0.1-0.3,0.1-0.4,0l-55.8-49.4
			c-0.1-0.1-0.1-0.3,0-0.5c0.1-0.1,0.3-0.2,0.4-0.1l63.4,42.8c0.1,0.1,0.1,0.2,0.1,0.3C385.2,422.5,385.2,422.6,385.2,422.6z
			 M377.3,428.6l7.1-6.1l-58.9-39.7L377.3,428.6z"/>
	</g>
	<g id="triangle36_47_">
		<path class="st1" d="M377.5,429.3L377.5,429.3c-0.1,0.2-0.3,0.2-0.5,0.1l-80-49.6c-0.1-0.1-0.2-0.2-0.1-0.4c0-0.1,0.2-0.2,0.3-0.2
			l24.3,0.1c0.1,0,0.2,0,0.2,0.1l55.8,49.4C377.6,428.9,377.6,429.1,377.5,429.3z M298.3,379.9l75.8,46.9L321.3,380L298.3,379.9z"/>
	</g>
	<g id="triangle36_46_">
		<path class="st1" d="M321.7,379.8c-0.1,0.1-0.2,0.2-0.3,0.2l-24.3-0.1c-0.1,0-0.2-0.1-0.3-0.2c-0.1-0.1,0-0.2,0-0.3l11.5-17.4
			c0.1-0.1,0.2-0.1,0.3-0.1c0.1,0,0.2,0,0.3,0.1l12.8,17.5C321.8,379.6,321.8,379.7,321.7,379.8
			C321.8,379.8,321.8,379.8,321.7,379.8z M297.8,379.2l23,0.1l-12.2-16.6L297.8,379.2z"/>
	</g>
	<g id="triangle36_45_">
		<path class="st1" d="M272.5,268.5c-0.1,0.1-0.1,0.1-0.2,0.2l-31.6,4.6c-0.1,0-0.2,0-0.3-0.1s-0.1-0.2-0.1-0.2l-0.5-56.4
			c0-0.1,0.1-0.3,0.2-0.3c0.1,0,0.3,0,0.4,0.1l32.2,51.8C272.6,268.2,272.6,268.3,272.5,268.5C272.5,268.4,272.5,268.4,272.5,268.5z
			 M240.9,272.5l30.8-4.5l-31.3-50.3L240.9,272.5z"/>
	</g>
	<g id="triangle36_44_">
		<path class="st1" d="M240.9,273.1c0,0.1-0.1,0.1-0.2,0.1c-0.1,0-0.3,0-0.4-0.2l-22.6-39.5c-0.1-0.1,0-0.3,0.1-0.4l22-16.9
			c0.1-0.1,0.2-0.1,0.3,0s0.2,0.2,0.2,0.3l0.5,56.4C240.9,273,240.9,273,240.9,273.1z M218.4,233.5l21.8,38.1l-0.5-54.5L218.4,233.5
			z"/>
	</g>
	<g id="triangle36_43_">
		<path class="st1" d="M255,313.2c-0.1,0.1-0.2,0.2-0.3,0.2s-0.3-0.1-0.3-0.2L240.3,273c0-0.1,0-0.2,0-0.3l0,0
			c0.1-0.1,0.1-0.1,0.2-0.2l31.6-4.6c0.1,0,0.2,0,0.3,0.1c0.1,0.1,0.1,0.2,0,0.3L255,313.2L255,313.2z M241,273.2l13.7,38.9l17-43.4
			L241,273.2z"/>
	</g>
	<g id="triangle36_42_">
		<path class="st1" d="M308.9,362.3c0,0.1-0.1,0.1-0.2,0.2l-62.2,9.9c-0.1,0-0.2,0-0.3-0.1s-0.1-0.2-0.1-0.3l8.3-58.9
			c0-0.1,0.1-0.2,0.2-0.3c0.1,0,0.2,0,0.3,0.1l54,49.1C309,362,309,362.1,308.9,362.3L308.9,362.3z M246.8,371.6l61.1-9.7l-53-48.2
			L246.8,371.6z"/>
	</g>
	<g id="triangle36_41_">
		<path class="st1" d="M246.7,372.2l-0.1,0.1c-0.1,0.1-0.2,0.1-0.3,0l-51.7-17c-0.1,0-0.2-0.1-0.2-0.3c0-0.1,0-0.2,0.1-0.3l60-41.9
			c0.1-0.1,0.3-0.1,0.4,0c0.1,0.1,0.2,0.2,0.2,0.3l-8.3,58.9C246.7,372.1,246.7,372.1,246.7,372.2z M195.4,354.9l50.7,16.7l8.1-57.8
			L195.4,354.9z"/>
	</g>
	<g id="triangle36_40_">
		<path class="st1" d="M255,313.2C254.9,313.3,254.9,313.3,255,313.2l-60.1,42c-0.1,0.1-0.3,0.1-0.4,0c-0.1-0.1-0.1-0.3-0.1-0.4
			l45.9-82.1c0.1-0.1,0.2-0.2,0.3-0.2s0.2,0.1,0.3,0.2L255,313C255,313.1,255,313.2,255,313.2z M195.7,353.9l58.6-41l-13.8-39.2
			L195.7,353.9z"/>
	</g>
</g>
</svg>
